PathFileType	4	(X/Y/Z)	OpenSim_Sub02_CSBaseline_Gyro.trc
DataRate	CameraRate	NumFrames	NumMarkers	Units	OrigDataRate	OrigDataStartFrame	OrigNumFrames
100	100	24	8	m	100	883	7057
Frame#	Time	torso_imu_offset_imu	pelvis_imu_offset_imu	tibia_r_imu_offset_imu	femur_r_imu_offset_imu	tibia_l_imu_offset_imu	femur_l_imu_offset_imu	toes_r_imu_offset_imu	toes_l_imu_offset_imu
				X1	Y1	Z1	X2	Y2	Z2	X3	Y3	Z3	X4	Y4	Z4	X5	Y5	Z5	X6	Y6	Z6	X7	Y7	Z7	X8		Y8	Z8	

883	8.82000000	-0.62171547	-0.34169164	-0.05089875	-0.30022717	0.16079087	0.39083699	1.82702269	-1.17009949	2.76039526	0.29316666	0.48883132	0.87292271	0.18615331	0.37758826	0.96666189	0.81716995	-0.19932011	0.45937838	-1.70239272	4.41781599	2.22123570	-0.17606244	0.01715453	0.21285241
884	8.83000000	-0.61294349	-0.31164684	-0.03902883	-0.29837259	0.21058571	0.37336831	2.15521122	-1.06257295	3.21363535	0.49743235	0.42559893	0.79432903	0.25681418	0.37661513	0.94787870	0.54921049	-0.17945760	0.44496063	-2.11315595	4.50932733	1.86208517	-0.18912592	0.02311878	0.24674332
885	8.84000000	-0.60305441	-0.29459032	-0.04256587	-0.28268932	0.23992545	0.31403879	2.36650612	-0.85926048	3.67024229	0.62082563	0.36908026	0.70939110	0.37890732	0.38834575	0.92983805	0.25904095	-0.15524420	0.43490469	-2.22679476	4.48491397	1.45140776	-0.23882137	0.07804735	0.27598649
886	8.85000000	-0.58404300	-0.29721075	-0.06493265	-0.25418349	0.24435363	0.27757862	2.44276120	-0.62916519	4.06068257	0.65594672	0.30819635	0.63244397	0.40633874	0.39185546	0.96885092	0.00356931	-0.15100089	0.44673745	-2.11379989	4.46218185	1.07611972	-0.27436753	0.13380954	0.32059109
887	8.86000000	-0.55617816	-0.31355794	-0.08699384	-0.23250734	0.24079806	0.23196810	2.32385016	-0.46392188	4.38071396	0.62471594	0.24033692	0.54580656	0.24704023	0.42151571	0.94336169	-0.14690064	-0.14068840	0.49956378	-1.84989328	4.46517090	0.82764919	-0.26564099	0.14211495	0.35603164
888	8.87000000	-0.53099075	-0.31841288	-0.11180518	-0.22826284	0.22707575	0.18592140	2.19254557	-0.40318632	4.62407287	0.55489198	0.16623852	0.44459320	0.07220029	0.42379900	0.87935199	-0.25248970	-0.14413921	0.54124052	-1.68640240	4.40435357	0.77566961	-0.28999726	0.13001277	0.36259995
889	8.88000000	-0.51294615	-0.31312148	-0.13716795	-0.23819522	0.21137283	0.12674544	2.11524720	-0.42451011	4.78433088	0.43673121	0.06146926	0.35197070	0.02666283	0.39746627	0.83947896	-0.27012308	-0.14348184	0.58950274	-1.64677166	4.29070577	0.93313225	-0.30855271	0.13972283	0.34130348
890	8.89000000	-0.48782948	-0.30566379	-0.14990798	-0.23791365	0.19834494	0.06780613	1.65640205	-0.46547879	4.81252842	0.28912981	-0.02630549	0.25038869	-0.00253691	0.41746667	0.86305242	-0.21780569	-0.14992320	0.64964857	-1.56777504	4.15808887	1.25435216	-0.29624273	0.13466073	0.30456825
891	8.90000000	-0.46228545	-0.29089061	-0.15965989	-0.23248877	0.18313341	0.03429260	0.61052123	-0.50379194	4.69855014	0.15834873	-0.08052512	0.14072533	-0.09945809	0.43834247	0.89251537	-0.11797970	-0.17379619	0.67621086	-1.35096977	4.05497869	1.63990952	-0.29487929	0.11731734	0.26394200
892	8.91000000	-0.43081658	-0.27342067	-0.16487278	-0.22064338	0.16573336	0.00284112	-0.47613388	-0.56366026	4.59570116	0.03462360	-0.09578485	0.01859393	-0.15700973	0.42153724	0.89256100	-0.01191407	-0.17664719	0.68784741	-1.10083437	3.95911790	1.98772576	-0.26600996	0.09987127	0.22583866
893	8.92000000	-0.39971531	-0.25677703	-0.16506175	-0.19715261	0.15771233	-0.01419433	-1.09549568	-0.60629871	4.61655126	-0.03906684	-0.09018456	-0.12347321	-0.18994535	0.38696109	0.87422937	0.07898232	-0.16748195	0.69702141	-0.99812602	3.87089818	2.25427248	-0.24803818	0.05419846	0.19887520
894	8.93000000	-0.36690861	-0.22945991	-0.16308039	-0.16182856	0.15721511	-0.02190069	-1.09371260	-0.61628146	4.70041843	-0.07350139	-0.08578001	-0.26884303	-0.19879515	0.39288025	0.83833032	0.14620462	-0.15684121	0.70596920	-0.99256941	3.86389826	2.43214551	-0.22765349	0.02559231	0.17320150
895	8.94000000	-0.34221126	-0.19366828	-0.16113518	-0.11626661	0.16104178	-0.01944805	-0.57335459	-0.67405978	4.73177953	-0.09527770	-0.10850961	-0.42235609	-0.21416990	0.41626414	0.83910749	0.18740350	-0.12205586	0.70889194	-1.00927836	4.00100206	2.51993420	-0.19220949	0.00297496	0.15528430
896	8.95000000	-0.31776861	-0.16299137	-0.15591487	-0.07789789	0.16720277	-0.02253154	0.33958576	-0.74351836	4.68646100	-0.08875557	-0.15381377	-0.56629246	-0.21112858	0.39704462	0.85685824	0.20785323	-0.12597659	0.72930102	-0.92967905	4.24624729	2.54577441	-0.15005553	-0.01739281	0.12793416
897	8.96000000	-0.30242348	-0.13800357	-0.13858424	-0.04730327	0.15277935	-0.04415227	1.41135677	-0.66445425	4.64202706	-0.07625706	-0.22228773	-0.69746110	-0.09878669	0.39271534	0.85225544	0.22319823	-0.10985031	0.74983946	-0.78779507	4.44723716	2.56424404	-0.14021623	-0.06075272	0.12556511
898	8.97000000	-0.28282049	-0.10517102	-0.12194586	-0.01749555	0.13713153	-0.05529002	2.30746237	-0.40568101	4.63784962	-0.07638874	-0.27880371	-0.81547673	-0.03652680	0.43641733	0.84511232	0.25397803	-0.08096999	0.75211940	-0.71668100	4.48738261	2.63386071	-0.12952164	-0.07672192	0.12112820
899	8.98000000	-0.26371135	-0.07946229	-0.10450238	0.03384844	0.12785544	-0.04226718	2.68243578	-0.20131128	4.62475685	-0.09312621	-0.31304152	-0.91569136	-0.00884259	0.43665255	0.89623295	0.28439080	-0.07090211	0.74970460	-0.63415500	4.36609055	2.75980657	-0.09388476	-0.09643858	0.11786038
900	8.99000000	-0.24873064	-0.05152484	-0.08672429	0.06440139	0.10723635	-0.05207492	2.60575704	-0.12958620	4.52050662	-0.11469395	-0.28062109	-0.98765223	0.06939826	0.41703530	0.96718332	0.33022520	-0.06344925	0.74305615	-0.35114711	4.16539433	2.98992628	-0.07786822	-0.12128387	0.11631210
901	9.00000000	-0.23134827	-0.02846278	-0.06502995	0.07442226	0.09723575	-0.03878840	2.57795114	-0.02265712	4.25241039	-0.08929827	-0.19309887	-1.03007435	0.22581842	0.43480759	0.99634276	0.38786465	-0.05036524	0.72784736	-0.20960725	3.88604326	3.33133691	-0.04916981	-0.13676139	0.11788646
902	9.01000000	-0.21697731	-0.01086608	-0.04285646	0.06277326	0.11780622	-0.00869713	2.43346135	0.07812686	3.89554055	0.00233999	-0.12034259	-1.02922303	0.38350080	0.44517505	1.00689842	0.43989591	-0.01346855	0.70193619	-0.22006886	3.53893290	3.52154690	-0.06654481	-0.16911066	0.13498873
903	9.02000000	-0.20328790	0.00081164	-0.02662323	0.05909930	0.14461771	0.00831710	1.90021041	0.12514710	3.54903872	0.15592674	-0.12322356	-1.00743172	0.42688522	0.49946932	1.01161017	0.44435948	0.01938102	0.66861719	0.34874288	3.27139941	3.42593903	-0.08320703	-0.20294524	0.15073104
904	9.03000000	-0.19245763	0.02969443	-0.00925898	0.06198000	0.14366422	0.03055157	1.61122791	0.25769812	3.17879184	0.32592889	-0.20279416	-0.99740002	0.28872684	0.59537588	1.05572421	0.43779600	0.04951313	0.62825829	0.26523271	3.05236865	3.07265852	-0.08583799	-0.22875480	0.17275032
905	9.04000000	-0.17436244	0.05505293	0.00385987	0.07810616	0.11920063	0.04241940	1.27476368	0.07652223	2.81911325	0.48043737	-0.25611622	-0.92490037	0.12371654	0.65057484	1.14645712	0.43495752	0.08645633	0.57782863	0.30182386	2.70852564	2.48017887	-0.05554334	-0.25836598	0.17980112
906	9.05000000	-0.14285444	0.07145995	0.00926971	0.09283604	0.09224690	0.05685617	0.83917243	-0.18112748	2.34059262	0.58666366	-0.20119541	-0.74340098	0.11550582	0.67026957	1.21297844	0.45253106	0.10961224	0.49566427	0.22165856	2.15571162	1.78710478	-0.05152903	-0.32274620	0.21564451
